<?xml version="1.0" encoding="utf-8"?>
<!-- Generator: Adobe Illustrator 16.0.4, SVG Export Plug-In . SVG Version: 6.00 Build 0)  -->
<!DOCTYPE svg PUBLIC "-//W3C//DTD SVG 1.1//EN" "http://www.w3.org/Graphics/SVG/1.1/DTD/svg11.dtd">
<svg version="1.1" xmlns="http://www.w3.org/2000/svg" xmlns:xlink="http://www.w3.org/1999/xlink" x="0px" y="0px" width="500px"
	 height="380px" viewBox="0 0 500 380" enable-background="new 0 0 500 380" xml:space="preserve">
<g id="Layer_1">
</g>
<g id="Layer_2">
	<g>
		<path d="M70.097,76.782c0.701,0,1.636,0,2.338,0.467c3.741,1.403,4.208,4.209,1.638,7.015c-2.339,2.806-5.145,3.974-8.417,4.676
			c-3.274,0.702-6.547,1.638-9.82,2.572l-7.015,1.402c-0.467,0.234-1.403,0.703-1.403,1.17c-2.572,7.949-6.079,15.431-9.352,22.913
			c-2.806,7.014-4.911,14.261-7.481,21.276c-1.637,4.676-3.274,9.352-4.677,13.794c-1.402,4.677-2.572,9.119-3.74,13.795
			c-0.702,2.105-1.637,4.208-2.339,6.313l-1.403,4.677c-0.701,1.403-1.169,2.805-2.104,4.208c-2.572,3.74-6.546,2.338-9.117,0.234
			l-1.872-2.104c-1.169-1.169-1.403-2.806-1.403-4.443c-0.233-3.974,1.169-7.248,2.572-10.755
			c2.104-5.377,3.273-10.755,5.144-16.132c0.936-3.04,1.87-5.611,2.805-8.417c2.339-6.547,4.443-13.094,6.781-19.64
			c0.469-1.403,1.403-2.806,2.104-4.442c1.403-3.975,2.807-8.185,4.209-12.16l12.625-32.967c0.936-2.57,1.403-5.142,2.338-7.714
			c1.871-5.144,3.976-10.521,5.846-15.899c1.403-4.208,2.572-8.651,3.741-12.859c0.233-1.403,0.468-2.571,0.935-3.975h-8.651
			c-2.572,0-3.741-1.403-3.741-3.741c0-3.272,0.936-5.845,2.571-8.65c1.871-3.04,3.507-4.676,7.249-4.91
			c2.805,0,5.844-0.935,8.884-1.168c0.936-0.235,1.638-0.702,1.871-1.637c1.169-3.507,4.909-5.377,8.416-3.975
			c0.469,0.233,1.169,0.467,1.638,0.467c2.807-0.702,3.741,1.637,4.91,3.273c0.467,0.234,0.234,0.936,0.467,1.636h5.612
			c7.949-0.233,15.898-0.467,23.848-0.467c2.573,0,5.144,0.935,7.716,1.169c1.402,0.234,2.805,0,4.208-0.234
			c1.636,0,3.039-0.468,4.443-0.468c1.87,0,3.038,0.936,3.273,2.806c0,1.404-0.235,3.039-0.235,4.443
			c0,0.467-0.467,0.935-0.701,1.168c-2.337,1.869-4.91,3.507-8.184,3.507c-6.079,0-12.157,0.468-18.002,2.571
			c-2.104,0.936-4.676,0.702-7.015,0.702c-4.675,0.234-9.118,0.468-13.794,0.468c-1.637,0.234-3.273,0.234-4.676,0.468
			c-1.636,0-2.338,0.701-3.039,2.104c-3.507,10.053-7.248,19.874-10.756,29.693c-2.104,5.845-3.974,11.691-6.079,17.77H70.097z"/>
		<path d="M176.474,5.003l0.234,0.234c3.974,1.636,4.442,4.208,3.273,8.65c-0.702,2.806-1.871,5.378-3.04,7.95
			c-3.273,7.481-5.611,14.963-7.248,22.913c-1.169,5.377-2.806,10.754-3.975,16.132c-0.702,2.806-0.935,5.846-1.637,8.651
			c-0.935,3.975-1.403,7.949-2.805,11.924c-1.638,4.442-2.806,9.119-3.742,14.029c-0.935,4.208-2.104,8.417-3.975,12.391
			c-3.975,9.119-6.312,18.705-6.079,28.758c0,5.378-0.467,10.521-0.701,15.899c0,0.234,0.233,0.468,0.233,1.169
			c1.637-1.169,3.273-2.105,4.909-3.04c4.911-3.507,9.821-6.779,14.496-10.053c0.235,0,0.235,0,0.235-0.233
			c7.716-3.274,11.456-10.054,15.43-16.601c1.637-2.805,3.508-5.611,5.378-8.416c2.104-3.274,3.976-6.548,6.313-9.587
			c1.403-2.104,3.039-3.975,4.91-5.612c3.507-2.806,6.546-5.845,9.118-9.585c3.975-5.611,8.184-4.677,13.093-1.638
			c0.468,0.234,0.936,1.403,0.936,1.871c0,4.91-1.169,9.352-3.272,13.327c-2.105,3.975-4.677,7.95-7.25,11.691
			c-2.103,3.507-4.208,7.014-6.779,10.521c-2.105,2.806-4.209,5.377-6.547,7.949c-3.272,3.507-6.545,6.78-9.819,10.054
			c-4.208,3.975-7.482,8.651-10.989,13.327c-5.845,7.716-12.159,14.964-20.341,20.341c-2.338,1.637-5.144,2.338-7.949,3.273
			c-1.637,0.467-3.274,0.701-4.911,0.701c-0.935,0-2.338-0.468-3.039-1.168c-2.339-2.806-4.676-5.377-6.547-8.417
			c-3.507-4.442-4.442-9.587-3.741-15.198c0.467-7.949,0.936-15.665,2.806-23.614c0.701-3.273,0.233-6.781,0-10.053
			c-0.233-6.079,0.701-11.691,1.87-17.536c1.637-10.288,5.144-20.107,8.417-29.927c2.572-7.949,5.145-15.899,7.482-23.848
			c1.402-5.144,1.87-10.521,3.04-15.666c1.168-5.376,2.571-10.989,3.974-16.366c1.17-4.909,4.209-8.651,8.418-11.456
			c1.87-1.169,3.507-2.339,5.377-3.741H176.474z"/>
		<path d="M243.102,131.025l6.312-4.209c0.467-0.233,0.936-0.701,1.403-0.701c2.105,0.234,3.742-0.935,5.376-1.87l4.211-2.105
			c2.102-0.935,4.441-1.636,6.778-2.571c0.468-0.234,1.169-0.702,1.636-0.469c3.041,0,5.613-1.403,8.184-2.805l2.34-0.701
			c0.7-0.233,1.404-0.233,2.104-0.468c1.87-0.468,3.508-1.403,4.21-3.74c1.635-4.443,3.738-8.652,5.61-13.094
			c0.468-1.402,0.934-2.805,1.17-4.442c0-2.572,1.168-4.91,3.039-6.78c1.635-2.104,3.039-4.209,3.973-6.781
			c1.872-5.143,3.742-10.287,5.846-15.431c0.469-1.403,1.639-2.805,2.807-3.975c2.571-2.572,4.209-5.612,5.611-8.65
			c3.975-9.82,7.716-19.64,11.689-29.227c1.402-2.806,3.274-5.611,4.91-8.182c0.936-1.872,2.338-3.274,3.041-4.911
			c1.167-2.572,2.805-4.443,5.377-5.378h2.806c2.805,1.402,4.44,3.507,4.208,7.014l0.232,1.637c0,2.806,0,5.612-0.232,8.417
			c-0.233,2.105-0.936,4.209-0.701,6.08c0.934,7.481,0,14.496-0.471,21.743c-0.466,4.676-0.699,9.352-0.699,13.795
			c0,3.039,0,6.079-1.401,8.885c-0.468,1.167-0.704,2.337-0.936,3.507c-0.702,6.78-1.638,13.794-2.104,20.809
			c-0.234,4.677,0.466,9.352,0.699,14.028v21.276c0,1.169,0.234,2.572,0.468,3.742l2.806,13.559
			c1.638,7.249,3.041,14.497,4.209,21.511c0.702,3.508,1.403,7.015,3.273,10.053c1.17,1.872,0,3.508-2.105,3.275
			c-1.636,0-3.038-0.234-4.441-0.234c-2.805,0.234-4.675-0.935-6.08-3.041c-3.038-3.506-4.44-7.714-5.376-12.157
			c-1.168-6.781-1.871-13.561-2.805-20.341c-0.236-0.468-0.236-0.936-0.236-1.169c-2.568-7.014-3.039-14.496-3.74-21.744
			c-0.467-3.04-1.168-6.08-1.633-9.352c-1.875,0.467-3.042,0.467-4.21,0.935c-4.911,1.87-9.821,4.209-14.731,6.079l-4.676,2.104
			c-2.807,0.701-4.676,2.338-5.377,5.377c-1.17,4.208-2.104,8.651-4.911,12.158c-0.468,0.701-0.468,1.636-0.7,2.337
			c-0.701,2.805-1.403,5.611-2.34,8.417l-4.908,14.497c-0.936,2.805-1.869,5.845-3.273,8.651c-1.638,3.04-4.676,3.975-7.949,2.338
			c-3.742-1.637-6.547-7.481-5.379-11.69c0.701-2.806,1.871-5.377,3.039-7.949c0.467-1.637,1.637-3.04,1.871-4.676
			c1.404-6.546,3.273-12.626,5.61-18.938c0.468-1.637,0.468-3.507,0.702-5.144c0-1.403-0.934-2.105-2.104-1.637
			c-3.273,1.169-6.547,2.338-9.819,3.741c-4.21,1.403-8.651,0.468-12.859,1.636c-0.936,0.234-2.104,0.234-2.807,0.702
			c-3.272,1.637-4.441,1.168-6.079-1.871c-0.233-0.234-0.467-0.468-0.467-0.935V131.025z M304.125,106.008
			c0.234,0,0.234,0.233,0.468,0.233c0.935-0.233,2.103-0.467,3.038-0.7l15.199-5.612c1.168-0.468,1.869-1.169,2.104-2.338
			c0-4.208,0.467-8.183,0-12.158c-0.701-4.675-0.701-9.586,0-14.262v-3.039c-1.17,1.168-1.869,2.337-2.34,3.506
			c-2.335,5.144-4.908,9.82-7.947,14.496l-2.806,4.208c-1.17,1.637-2.104,3.507-3.04,5.145c-0.233,0.701-0.468,1.637-0.936,2.337
			C306.695,100.396,305.527,103.201,304.125,106.008z"/>
		<path d="M497.712,30.956c-0.701,2.104-2.105,2.806-4.443,2.806c-0.934-0.234-1.869,0-2.808,0.234
			c-5.374,1.402-10.751,2.571-15.896,4.208c-3.508,0.936-6.78,2.338-10.054,3.741c-0.702,0.234-1.168,1.169-1.168,1.637
			c-1.172,5.844-2.105,11.689-3.508,17.301c-1.171,5.143-1.637,10.054-2.339,15.197c-0.701,5.377-1.869,10.989-3.039,16.366
			c-1.402,6.079-3.273,11.924-4.91,18.003c-1.87,7.248-3.74,14.497-5.846,21.511c-1.87,6.779-3.973,13.327-5.845,19.873
			c-2.104,7.716-3.975,15.431-6.079,23.381c-0.701,2.338-1.169,4.676-2.104,6.78c-0.468,1.169-1.401,2.338-2.569,2.806
			c-2.106,0.936-3.978-0.467-4.21-3.039c0-2.806,0-5.845,0.466-8.651c0.937-5.611,2.106-11.222,3.274-16.833
			c1.871-10.054,3.975-19.873,5.61-29.927c1.171-7.249,1.638-14.497,2.573-21.744c0.233-2.104,0.7-4.209,1.403-6.079
			c2.572-6.079,3.974-12.158,4.907-18.471c0.703-6.546,2.105-13.093,3.043-19.64c0.23-0.935,0.23-2.104,0.23-3.039
			c0.235-2.338,0.47-4.676,1.638-6.78c0.702-0.936,0.936-1.871,1.405-3.274c-1.638,0.234-2.808,0.234-3.978,0.702l-10.287,2.104
			c-1.168,0.468-2.338,0.701-3.507,0.935l-14.495,2.105c-1.638,0.234-3.04,0.468-4.677,0.468c-2.337,0-3.741-1.637-3.507-3.976
			l0.468-0.702c4.44-2.805,8.649-5.844,14.028-6.78c1.168-0.234,2.104-0.701,3.039-1.403c4.91-2.572,10.288-4.442,15.665-5.846
			c3.507-0.935,6.78-2.337,10.055-3.507c0.7-0.233,1.168-0.935,1.168-1.637c0.232-1.87,0.232-3.974,0.232-5.845
			c0-1.168,0.47-1.87,1.873-2.573c2.806-1.635,5.611-1.168,8.416-1.402c2.806,0,3.74,0.702,4.441,3.508
			c0,0.467,0.234,1.169,0.234,1.637l25.018-7.014c0.234,0,0.234-0.234,0.234-0.234h2.104c1.17,0.936,2.338,1.637,2.571,3.04
			l0.702,7.949c0.234,0.235,0.468,0.702,0.468,1.169V30.956z"/>
		<path d="M67.058,277.266c-0.937,5.377-4.677,9.586-4.677,15.197c-0.234,1.637-1.402,3.507-2.571,4.91
			c-1.403,2.104-2.573,4.209-3.508,6.547c-1.402,4.677-3.039,9.354-4.909,14.029c-0.468,1.403-1.403,2.805-2.573,3.741
			c-2.337,2.337-3.74,5.142-4.91,8.182c-3.273,8.886-6.546,18.003-10.054,26.888c-1.168,2.807-2.806,5.381-4.208,7.947l-3.741,6.316
			c-1.169,2.102-3.74,3.506-6.313,3.039c-2.338-0.469-3.974-2.338-4.208-4.91c0-1.172-0.468-2.338-0.468-3.273
			c0-2.57,0.234-4.91,0.234-7.248c0-2.34,0.234-4.908,0.234-7.248v-14.029c0.234-5.379,0.467-10.988,0.467-16.365
			c0-3.039-0.233-6.079,1.17-8.884c0.468-1.17,0.701-2.34,0.701-3.273c0.935-7.015,1.636-14.029,1.403-21.044
			c-0.234-5.378-0.702-10.989-0.935-16.367c-0.235-4.441-0.235-8.885-0.468-13.328c-0.233-1.869-0.468-3.738-0.935-5.376
			c-1.403-6.546-3.041-13.093-4.443-19.639l-4.208-17.302c-0.233-0.936-0.934-1.637-1.168-2.572
			c-0.233-0.935-0.702-2.104-0.233-2.806c0-0.468,1.402-0.701,2.337-0.701c1.168-0.233,2.338,0.233,3.508,0
			c2.337-0.233,3.974,0.701,5.611,2.339c3.039,3.506,4.442,7.948,5.377,12.391c0.467,2.807,0.701,5.378,1.403,7.949
			c1.169,4.911,1.637,9.82,3.039,14.497c1.403,5.61,1.871,11.456,2.806,17.066c0.468,2.338,1.17,4.675,1.636,7.015
			c0.235,1.872,0.468,3.739,0.468,5.611c0.234,3.741,0,7.715-0.233,11.691c-0.468,3.975,0.233,8.416,0.233,12.625
			c0.234,3.272,0.234,6.545,0.468,9.82c0,1.403-0.234,3.04,0,4.908l0.935-1.402c0.468-1.17,1.169-2.57,1.87-3.738
			c2.104-4.443,4.209-8.652,6.546-13.096c0.936-1.869,2.807-3.273,3.742-5.376c1.636-3.976,3.273-8.185,4.676-12.394
			c1.403-3.974,2.104-8.416,3.506-12.39c0.702-2.339,2.104-4.442,3.039-6.782l2.105-5.845c0.701-2.807,1.636-5.611,2.806-8.183
			c1.403-2.806,2.338-5.846,1.637-9.118c-1.637-6.079-2.806-12.159-4.442-18.005c-0.234-1.168-0.936-2.103-1.17-3.271
			c-0.233-1.17-0.467-2.572-0.233-3.975c0.701-2.572,2.805-3.273,5.143-2.339c3.508,1.636,5.378,2.572,7.716,7.716
			c0.234-0.936,0.467-1.402,0.935-2.104c2.105-4.208,6.314-4.208,9.354-1.87c1.636,1.402,2.337,3.039,2.806,4.909
			c1.402,4.677-0.235,8.651-2.105,12.86c-1.17,2.571-1.87,5.377-2.572,7.949c-0.467,2.338-1.168,4.676-1.636,7.014
			c0,0.702-0.234,1.402-0.234,2.104c0.702,5.145,1.403,10.289,2.338,15.665c0.234,1.87,1.403,3.508,1.636,5.378
			c0.234,3.977,0.468,7.715,0.468,11.689c0,5.145-0.234,10.289-0.468,15.434c0,0.934,0.234,2.102,0.468,3.037
			c0.702,3.743,0.468,7.717,0.234,11.458c-0.234,1.17,0,2.103,0,3.741l0.935-1.639c0.936-1.635,1.637-3.272,2.338-4.908
			l6.079-11.689c0.467-0.936,1.403-1.871,2.104-2.808c0.702-1.169,1.636-2.337,2.104-3.741l4.209-10.52
			c0.467-1.172,0.467-2.573,0.701-3.741c0.233-1.403,0.233-2.805,0.702-3.974c0.935-2.807,1.87-5.848,3.506-8.418
			c2.105-3.04,2.573-6.546,3.742-10.055c0.935-2.805,1.636-5.377,3.04-7.948c0.935-1.637,0.935-3.507,1.636-5.378
			c0.935-3.506,2.104-7.249,3.273-10.989c0.936-3.507,1.87-7.015,3.04-10.755c0.233-0.701,0.468-1.402,0.935-1.87
			c0.701-1.403,1.637-2.573,2.338-3.741c0.702-1.17,1.637-1.402,2.805-0.701c2.573,1.402,4.911,2.806,6.08,5.846
			c0.234,0.7,0.467,1.87,0.467,2.572c-0.233,2.104-0.467,3.974-0.935,5.844c-0.468,2.572-0.935,4.91-1.637,7.248
			c-0.701,3.273-1.169,6.312-1.87,9.353c-0.701,2.104-1.403,3.974-1.871,6.079c-0.702,2.104-0.935,4.209-1.403,6.312
			c-0.467,1.869-1.402,3.508-1.87,5.377c-0.468,1.404-0.936,2.807-1.169,4.209c-0.702,2.573-1.637,4.909-3.507,7.016
			c-0.467,0.465-0.467,1.169-0.701,1.869l-4.911,12.391c-0.467,1.17-0.935,2.573-0.935,3.975c0,2.34-0.936,4.443-2.572,6.314
			c-1.637,1.87-2.806,3.975-3.507,6.547l-4.911,14.029c-0.702,1.168-1.636,2.571-2.572,3.739c-2.337,2.337-3.74,4.91-4.909,7.95
			l-10.287,27.121c-0.936,2.572-2.339,4.912-3.742,7.248c-1.403,2.336-2.806,4.676-4.208,7.248c-1.17,1.869-3.741,3.271-6.313,2.805
			c-2.104-0.469-3.741-2.338-3.975-4.678c-0.233-1.633-0.701-3.271-0.701-4.906c0-1.873,0.234-3.742,0.234-5.613
			c0.234-2.572,0.234-4.908,0.234-7.482c0.233-4.674,0-9.352,0.233-14.26c0-5.377,0.467-10.756,0.467-16.135
			c0-3.037-0.233-6.077,0.935-9.117c0.469-0.937,0.702-2.104,0.937-3.275c0.701-6.779,1.636-13.326,1.168-20.105
			c0-3.041-0.233-5.846-0.467-8.887c0-0.466-0.233-0.699-0.233-0.936C67.291,277.266,67.291,277.266,67.058,277.266z"/>
		<path d="M179.982,194.031c1.403,0.234,3.039,0.234,4.442,0.467c1.871,0,2.572,0.469,2.104,2.34
			c-0.701,3.506-1.402,7.246-2.571,10.521c-1.872,5.611-4.442,10.988-6.547,16.366c-1.402,4.208-2.572,8.418-3.975,12.392
			c-1.871,6.079-3.741,12.391-6.079,18.237c-2.572,7.014-5.612,13.795-8.183,20.809c-0.701,1.636-0.936,3.508-1.636,5.144
			c-0.936,2.104-1.871,3.974-2.806,5.845h0.467c2.806-1.168,5.845-2.104,8.651-3.271c2.806-0.938,5.377-2.573,8.184-3.041
			c3.741-0.467,7.014-1.87,10.52-3.04c1.169-0.468,2.339-1.403,3.508-1.872c1.871-0.699,3.507-1.168,5.378-1.633
			c1.168-0.235,1.87-0.468,2.338-1.873c1.403-3.271,2.805-6.545,3.974-10.053c3.741-10.287,7.248-20.809,9.586-31.563
			c1.87-7.247,4.208-14.263,7.949-20.575c0.468-1.168,0.468-2.338,0.935-3.506c0.233-0.937,0.702-1.872,1.403-2.807
			c1.637-2.572,2.338-5.611,5.144-7.482c1.637-1.168,2.805-1.402,4.676-0.7l4.208,0.7c2.104,0.468,2.572,1.17,2.805,3.273
			c0.468,3.508-0.233,7.016-1.402,10.521c-3.975,10.521-8.183,21.043-11.925,31.798c-1.869,5.61-3.272,11.456-5.143,17.065
			c-0.935,3.042-2.104,5.847-3.039,8.887c-0.234,0.468-0.234,0.701-0.702,1.403c3.272-0.702,6.313-1.638,9.352-2.339l3.507-0.701
			c3.741-0.467,7.482,3.04,7.482,7.716c0,3.507-1.17,6.546-3.741,8.884c-0.936,1.17-2.105,2.104-3.04,3.041l-1.871,0.701
			c-1.637,0-3.273,0-4.91,0l-7.95,0.7c-2.103,0.468-4.442,0.937-6.779,1.638c-0.234,0-0.703,0.701-0.936,1.17
			c-3.273,6.312-5.378,13.327-7.249,20.34c-2.337,7.715-4.675,15.197-6.78,22.914c-0.935,3.037-1.402,6.078-2.338,8.883
			c-1.403,3.508-2.806,7.016-4.676,10.055c-2.104,3.74-3.039,7.949-4.442,11.691c-1.169,2.805-2.572,5.377-4.209,7.949
			c-1.403,2.102-3.507,2.336-5.611,1.637c-0.701-0.236-1.403-1.17-1.403-1.875c-0.467-2.805-0.935-5.609-0.935-8.645
			c0-3.742-0.234-7.484,0.702-11.225c2.338-10.055,5.845-19.641,10.287-28.992c3.274-7.717,6.781-15.199,8.885-23.146l2.338-6.314
			c-2.104,1.169-3.741,1.871-5.378,2.807c-3.272,1.869-7.014,2.104-10.754,2.338c-0.702,0-1.403,0.234-2.104,0.701
			c-2.105,1.639-4.676,2.338-7.248,2.572c-5.144,0.234-10.054,2.103-14.963,3.506c-0.468,0-1.169,0.937-1.403,1.404
			c-1.169,3.974-2.339,7.95-3.975,11.689c-2.573,6.78-5.612,13.328-7.95,20.107c-3.507,9.588-8.183,18.473-10.053,28.291
			c-0.468,1.402-0.936,2.807-1.872,3.975c-1.871,3.271-6.312,3.74-8.884,0.932c-2.572-2.57-3.04-5.375-2.338-8.883
			c1.402-7.246,4.677-14.027,7.247-20.807c2.104-6.314,4.209-12.157,6.547-18.238c1.403-3.975,3.04-7.948,4.676-11.689
			c0.936-2.571,1.637-5.377,2.806-8.416c-2.572,0.468-4.909,0.699-7.248,0.934l-11.69,0.701c-1.637,0-2.104-0.936-1.637-2.57
			c0.468-1.403,1.637-2.571,3.273-3.039c5.144-1.17,10.053-2.572,14.496-5.379c0.468-0.467,1.403-0.234,2.105-0.467
			c0.934,0,1.636,0,2.336-0.232c2.338-0.469,3.508-1.872,4.209-3.977c1.402-5.379,3.975-10.289,5.61-15.665
			c2.807-8.417,7.015-16.134,10.756-24.315c1.403-3.507,2.338-7.248,3.273-11.223c1.87-8.184,4.91-15.898,8.417-23.615
			c1.169-2.805,2.104-5.61,3.039-8.417c1.403-4.909,4.209-8.884,8.651-11.456H179.982z"/>
		<path d="M217.388,366.346c0.936-4.676,1.872-9.586,3.274-14.262c3.04-8.652,6.312-17.535,9.819-25.951
			c3.275-8.652,6.08-17.302,8.185-26.186c0.935-4.678,1.87-9.12,3.507-13.563c1.402-4.206,3.039-8.416,5.143-12.157
			c3.039-6.078,5.378-12.391,7.249-18.938c2.336-8.652,6.078-17.068,7.715-25.953c0-0.701,0.234-1.17,0.469-1.869
			c1.869-3.508,3.508-7.016,5.376-10.288c3.273-5.847,5.378-12.158,6.313-18.706c0.234-0.699,0.234-1.402,0.468-2.104
			c0.233-1.636,0.935-2.338,2.805-3.038c3.741-1.404,7.249,0,10.989,0.233c1.402,0.233,2.338,1.636,2.572,3.039
			c0.468,5.377-0.469,10.521-2.807,15.197c-2.337,4.442-4.208,8.885-5.844,13.561c-1.638,3.975-2.808,8.417-4.443,12.625
			c-2.338,5.612-3.74,11.458-5.379,17.303c-1.167,5.143-3.039,10.287-5.141,15.197c-2.807,7.248-6.08,14.496-9.354,21.744
			c-3.039,7.246-6.078,14.963-9.352,22.211c-3.273,7.249-6.547,14.029-9.82,21.041c-2.104,4.912-3.975,9.822-6.079,14.73
			c-2.573,5.611-4.91,11.457-7.483,17.068l-0.934,1.639c-1.637,1.865-3.04,2.336-4.91,1.635
			C218.324,370.088,217.623,368.686,217.388,366.346z"/>
		<path d="M370.995,220.92c-0.704,2.104-2.105,2.805-4.443,2.805c-0.936-0.234-1.87,0-2.806,0.234
			c-5.378,1.402-10.757,2.57-15.899,4.207c-3.508,0.936-6.78,2.34-10.055,3.742c-0.701,0.234-1.167,1.169-1.167,1.635
			c-1.172,5.846-2.106,11.692-3.507,17.303c-1.17,5.145-1.638,10.057-2.338,15.197c-0.702,5.377-1.872,10.988-3.04,16.366
			c-1.403,6.08-3.271,11.925-4.91,18.004c-1.871,7.25-3.741,14.496-5.848,21.511c-1.869,6.78-3.972,13.326-5.844,19.871
			c-2.104,7.717-3.975,15.436-6.078,23.381c-0.701,2.34-1.168,4.678-2.104,6.781c-0.469,1.168-1.404,2.336-2.574,2.807
			c-2.104,0.936-3.973-0.471-4.207-3.039c0-2.805,0-5.846,0.468-8.65c0.935-5.613,2.104-11.225,3.272-16.836
			c1.871-10.055,3.977-19.873,5.611-29.928c1.168-7.248,1.637-14.494,2.572-21.742c0.233-2.105,0.701-4.209,1.403-6.079
			c2.571-6.08,3.974-12.159,4.909-18.47c0.701-6.548,2.105-13.096,3.041-19.641c0.232-0.935,0.232-2.105,0.232-3.04
			c0.233-2.339,0.467-4.676,1.637-6.78c0.703-0.936,0.937-1.87,1.404-3.272c-1.638,0.233-2.808,0.233-3.976,0.7l-10.29,2.105
			c-1.168,0.467-2.334,0.701-3.504,0.935l-14.497,2.104c-1.636,0.234-3.039,0.468-4.677,0.468c-2.338,0-3.741-1.637-3.508-3.976
			l0.471-0.7c4.441-2.807,8.647-5.846,14.027-6.78c1.168-0.234,2.104-0.702,3.038-1.404c4.909-2.572,10.288-4.441,15.665-5.844
			c3.506-0.936,6.782-2.338,10.056-3.508c0.702-0.233,1.167-0.936,1.167-1.637c0.234-1.871,0.234-3.975,0.234-5.846
			c0-1.168,0.467-1.869,1.871-2.572c2.806-1.636,5.611-1.168,8.416-1.402c2.806,0,3.741,0.702,4.443,3.508
			c0,0.467,0.232,1.169,0.232,1.637l25.018-7.014c0.234,0,0.234-0.234,0.234-0.234h2.104c1.17,0.936,2.34,1.637,2.571,3.039
			l0.702,7.949c0.234,0.234,0.47,0.702,0.47,1.169V220.92z"/>
		<path d="M401.62,218.814c-2.808,0-5.613,0.234-8.185,0h-2.572c-1.4-0.467-2.338-1.168-2.572-2.805
			c-0.466-3.508,0-6.781,2.572-9.586c0.938-0.937,1.404-2.105,1.87-3.273c0.702-2.105,1.17-2.105,2.808-1.403
			c0.466,0.233,0.7,0.233,1.168,0.233l10.987-0.701c1.172,0,1.404-0.467,1.874-1.404c1.168-3.974,3.738-5.377,7.948-4.675
			c0.936,0.233,2.104,0,3.039,0c3.041,0,4.209,1.169,4.442,4.208c0,0.467,0,1.17,0,1.871h5.845
			c7.951-0.234,15.665-0.467,23.615-0.467c2.571,0,5.144,0.935,7.95,1.168c1.401,0.234,3.039-0.233,4.441-0.233
			c1.403-0.233,2.805-0.468,4.208-0.468c1.872-0.234,3.273,0.936,3.273,2.805c0.234,1.403,0.234,2.573,0,3.742
			c0,0.468-0.233,1.168-0.702,1.402c-2.337,1.637-4.674,3.273-7.714,3.273c-6.313,0-12.627,0.468-18.705,2.806
			c-1.872,0.702-3.976,0.468-6.079,0.468c-4.911,0.234-10.054,0.234-14.965,0.468c-1.636,0-3.273,0-4.909,0.468
			c-0.701,0.233-1.637,0.936-1.869,1.636c-3.275,8.418-6.312,16.833-9.354,25.252c-2.806,8.651-5.847,17.304-8.651,25.951
			c-0.232,0.702-0.232,1.17-0.466,2.106h14.262c1.404,0,2.806-0.236,4.209-0.236c1.869,0,3.505,1.172,4.675,2.572
			c0.936,1.17,0.702,3.039-0.466,4.441c-2.34,3.275-5.612,4.445-9.354,5.145c-3.272,0.701-6.549,1.636-9.586,2.572
			c-2.806,0.467-5.379,0.936-8.184,1.637c-0.469,0-1.402,0.702-1.637,1.168c-1.871,4.209-3.74,8.184-5.144,12.394
			c-3.273,8.183-6.079,16.601-9.116,25.017c-1.874,5.609-3.51,11.223-5.379,16.602c0,0.465-0.234,0.934-0.469,1.402
			c3.974,0,7.481,0,11.224,0h13.794c3.038,0,5.844,0.232,8.884,0.467c1.17,0,2.571,0.234,3.742,0c2.806-0.467,5.611,0,8.415,0.936
			c1.871,0.467,3.977,0.703,6.08,0.936c3.273,0.232,6.312,2.572,7.015,5.846c0.231,1.17-0.234,2.57-0.937,3.508
			c-2.337,3.271-5.844,4.674-10.054,4.908l-12.156,1.4c-0.936,0-1.638,0.236-2.34,0.236c-4.441-0.236-8.884-0.936-13.325-0.703
			c-4.91,0.238-10.054,1.406-14.964,2.105c-3.508,0.469-6.781,1.168-10.288,1.639c-0.936,0.232-1.17,0.467-1.636,1.4l-1.403,3.273
			c-2.806,4.209-6.078,3.973-9.586,1.404c-1.872-1.404-3.975-3.039-4.442-5.846c-1.168,0-2.34,0.234-3.508,0.234
			c-3.506,0.232-6.78-2.805-6.544-6.078c0.233-2.805,0.934-5.379,1.868-7.951c0.467-1.4,1.87-2.338,3.506-2.572
			c0.938,0,1.872-0.467,2.574-1.168c2.104-1.869,4.442-2.572,7.014-1.637c1.168-3.275,2.104-6.545,3.04-9.586
			c1.167-3.74,2.337-7.48,3.738-11.225c1.403-4.206,2.806-8.65,4.443-12.859c1.17-3.272,2.573-6.546,3.743-9.817
			c1.633-4.208,2.805-8.185,4.44-12.393c3.976-10.756,8.183-21.511,12.394-32.499l2.102-7.248c1.403-5.379,3.274-10.755,5.61-15.9
			c1.638-3.506,2.34-7.48,3.273-10.987C400.919,222.557,401.152,220.92,401.62,218.814z"/>
	</g>
</g>
</svg>
